#!OML:ASF E:\id_vita\Project 1\Capture day 1\Session 1\Male1.ASF
:FULLY-SPECIFIED
:DEGREES
674
root 36.137 16.3171 0.0101799 373.242 97.6706 371.16
lowerback -4.68807 -1.00307 -1.05059
upperback 1.3024 -1.30627 0.90469
thorax 4.01832 -0.685615 1.41719
lowerneck -6.12181 0.997734 8.05252
upperneck 11.1661 0.50676 1.03296
head 4.38707 0.697556 -0.956975
rclavicle -1.28713e-014 7.0817e-015
rhumerus -22.9979 -0.89345 -88.7716
rradius 24.4609
rwrist 4.72185
rhand -21.3223 34.64
rfingers 7.12502
rthumb 5.06311 4.72054
lclavicle -1.28713e-014 7.0817e-015
lhumerus -31.2088 32.5583 71.1645
lradius 5.42187
lwrist -25.3444
lhand -14.0363 48.2095
lfingers 7.12502
lthumb 12.0941 77.84
rfemur -6.76446 -3.81233 23.9519
rtibia 21.8544
rfoot -13.4288 -11.5369
rtoes -7.08259
lfemur -14.5469 -3.22496 -13.6629
ltibia 29.7711
lfoot -20.2217 1.94989
ltoes -8.4572
675
root 36.1591 16.3232 -0.0132176 375.068 97.4941 373.059
lowerback -4.67603 -1.04059 -0.934026
upperback 1.31301 -1.36592 0.975779
thorax 4.02349 -0.713181 1.4204
lowerneck -6.21717 1.06814 8.24479
upperneck 11.3433 0.597229 0.756991
head 4.46198 0.739945 -1.06748
rclavicle 1.20901e-014 -1.02871e-014
rhumerus -23.0089 -1.18534 -88.8305
rradius 23.9745
rwrist 4.95741
rhand -21.5326 34.5861
rfingers 7.12502
rthumb 4.8601 4.6618
lclavicle 1.20901e-014 -1.02871e-014
lhumerus -30.9501 33.272 71.042
lradius 5.22348
lwrist -26.1651
lhand -14.1908 47.8815
lfingers 7.12502
lthumb 11.9451 77.5207
rfemur -6.49606 -3.28049 24.1359
rtibia 21.6768
rfoot -13.2262 -11.8881
rtoes -8.21435
lfemur -14.2139 -3.30701 -13.5248
ltibia 29.5873
lfoot -20.7115 1.64573
ltoes -5.36227
676
root 36.1878 16.3283 -0.0348303 375.839 97.1971 373.951
lowerback -4.77155 -1.05705 -1.00806
upperback 1.4079 -1.38369 0.994658
thorax 4.17891 -0.725454 1.4775
lowerneck -6.32041 1.08783 8.3517
upperneck 11.3905 0.616452 0.598161
head 4.49521 0.745519 -1.13226
rclavicle 1.12903e-015 7.00716e-015
rhumerus -22.8638 -1.81328 -88.8342
rradius 23.3054
rwrist 5.46026
rhand -21.7062 34.9316
rfingers 7.12502
rthumb 4.69245 5.00353
lclavicle 1.12903e-015 7.00716e-015
lhumerus -31.0184 33.904 70.8394
lradius 5.7747
lwrist -26.8747
lhand -13.637 47.6608
lfingers 7.12502
lthumb 12.4791 77.2682
rfemur -6.12697 -2.64054 24.1479
rtibia 21.4627
rfoot -13.0125 -12.2716
rtoes -8.5762
lfemur -13.8331 -3.15848 -13.5864
ltibia 29.4913
lfoot -20.6269 1.63718
ltoes -6.35997
677
root 36.2099 16.3321 -0.0566656 373.443 96.8825 371.509
lowerback -4.84672 -1.01002 -1.3608
upperback 1.38865 -1.29355 0.866083
thorax 4.20351 -0.688507 1.54919
lowerneck -6.3973 1.01591 8.05101
upperneck 11.4138 0.517168 0.827773
head 4.50951 0.698448 -1.01858
rclavicle 1.17873e-014 -1.2921e-015
rhumerus -22.8933 -2.84582 -88.6688
rradius 22.7912
rwrist 6.08163
rhand -21.759 35.2203
rfingers 7.12502
rthumb 4.64144 5.29117
lclavicle 1.17873e-014 -1.2921e-015
lhumerus -31.0992 34.2615 70.7977
lradius 6.53438
lwrist -27.4566
lhand -13.1253 47.5755
lfingers 7.12502
lthumb 12.9724 77.1522
rfemur -5.9234 -2.0854 23.7178
rtibia 21.2315
rfoot -12.8135 -12.5866
rtoes -8.33847
lfemur -13.6528 -3.03188 -14.0966
ltibia 29.4387
lfoot -20.5494 1.97048
ltoes -7.77268
678
root 36.228 16.3345 -0.0777887 373.048 96.703 371.089
lowerback -4.77837 -0.991643 -1.46178
upperback 1.3162 -1.26274 0.844119
thorax 4.09027 -0.674254 1.58749
lowerneck -6.45308 0.967892 7.79477
upperneck 11.5391 0.465953 0.874848
head 4.55377 0.66924 -0.965803
rclavicle 3.07495e-015 -1.98785e-015
rhumerus -23.1268 -3.88418 -88.4521
rradius 22.5646
rwrist 6.68014
rhand -21.7312 35.1694
rfingers 7.12502
rthumb 4.66834 5.2408
lclavicle 3.07495e-015 -1.98785e-015
lhumerus -31.2203 34.6685 70.7366
lradius 7.19501
lwrist -28.0408
lhand -12.6919 47.3751
lfingers 7.12502
lthumb 13.3902 76.9248
rfemur -5.77669 -1.55894 23.6067
rtibia 21.102
rfoot -12.6738 -12.9598
rtoes -7.9991
lfemur -13.5281 -2.90488 -14.2771
ltibia 29.3558
lfoot -20.4587 2.24952
ltoes -8.58996
679
root 36.252 16.3362 -0.0979946 374.316 96.6078 372.425
lowerback -4.78404 -1.02105 -1.42347
upperback 1.33887 -1.30604 0.893503
thorax 4.11903 -0.695742 1.61311
lowerneck -6.4905 0.982889 7.75483
upperneck 11.5867 0.499259 0.740602
head 4.57531 0.676525 -0.998936
rclavicle 1.7754e-014 7.95139e-016
rhumerus -23.3642 -5.01838 -88.2407
rradius 22.4707
rwrist 7.47608
rhand -21.7353 35.0967
rfingers 7.12502
rthumb 4.66433 5.16803
lclavicle 1.7754e-014 7.95139e-016
lhumerus -31.2701 35.1866 70.6133
lradius 7.78941
lwrist -28.8068
lhand -12.0327 46.9875
lfingers 7.12502
lthumb 14.0255 76.4943
rfemur -5.68132 -1.01132 23.7317
rtibia 21.2976
rfoot -12.7232 -13.4243
rtoes -7.34623
lfemur -13.2473 -2.80818 -14.2028
ltibia 29.0963
lfoot -21.2255 1.81738
ltoes -2.02402
680
root 36.2701 16.339 -0.126537 373.444 96.5662 371.507
lowerback -4.80048 -1.09523 -1.45013
upperback 1.26906 -1.39896 0.771546
thorax 4.05705 -0.740223 1.49454
lowerneck -6.36637 1.00529 8.00873
upperneck 11.4858 0.544767 0.479057
head 4.52648 0.69 -1.11843
rclavicle 5.81135e-015 -6.80837e-015
rhumerus -23.2889 -5.66162 -88.253
rradius 21.5186
rwrist 7.84034
rhand -22.0046 35.3473
rfingers 7.12502
rthumb 4.40432 5.4131
lclavicle 5.81135e-015 -6.80837e-015
lhumerus -31.5148 35.6009 70.2623
lradius 8.62663
lwrist -29.6435
lhand -11.3746 46.5534
lfingers 7.12502
lthumb 14.6596 76.0152
rfemur -5.72473 -1.05352 23.4838
rtibia 21.5012
rfoot -12.9675 -13.385
rtoes -6.79883
lfemur -13.0447 -2.84028 -14.4403
ltibia 28.835
lfoot -20.9465 1.87423
ltoes -3.93044
681
root 36.2806 16.3459 -0.161404 363.109 96.2925 360.605
lowerback -5.08904 -1.1646 -2.4948
upperback 0.927815 -1.40379 0.319642
thorax 3.88148 -0.757098 1.6118
lowerneck -6.2405 1.0129 8.11947
upperneck 11.6224 0.560963 0.441986
head 4.54889 0.70644 -1.14715
rclavicle 1.32223e-014 5.1684e-015
rhumerus -23.6713 -6.62631 -88.1362
rradius 20.9751
rwrist 8.43797
rhand -21.9388 35.2276
rfingers 7.12502
rthumb 4.46782 5.29468
lclavicle 1.32223e-014 5.1684e-015
lhumerus -32.1302 35.8705 69.7569
lradius 9.64308
lwrist -30.2573
lhand -11.1194 46.0909
lfingers 7.12502
lthumb 14.9054 75.5346
rfemur -6.35497 -1.51562 21.9259
rtibia 21.7513
rfoot -13.2249 -12.9196
rtoes -7.47232
lfemur -13.2718 -2.95691 -15.9691
ltibia 28.5174
lfoot -21.2269 1.89715
ltoes -0.292238
682
root 36.3035 16.344 -0.176209 362.317 96.0065 359.815
lowerback -5.10099 -1.12993 -2.71585
upperback 0.855644 -1.3432 0.312437
thorax 3.81584 -0.730171 1.7342
lowerneck -6.12962 1.00604 7.95315
upperneck 11.5934 0.583289 0.412514
head 4.52078 0.706793 -1.12875
rclavicle -1.1573e-014 -3.67752e-015
rhumerus -23.8989 -7.95372 -87.7951
rradius 20.4518
rwrist 9.32186
rhand -21.8223 35.1068
rfingers 7.12502
rthumb 4.58031 5.17633
lclavicle -1.1573e-014 -3.67752e-015
lhumerus -32.3731 36.2701 69.5633
lradius 10.263
lwrist -30.7453
lhand -11.1449 45.7056
lfingers 7.12502
lthumb 14.8809 75.1512
rfemur -6.3665 -0.437199 21.8854
rtibia 21.9686
rfoot -13.0323 -13.7396
rtoes -7.84471
lfemur -12.9946 -2.78195 -16.0861
ltibia 28.2637
lfoot -20.1753 2.71019
ltoes -10.2078
683
root 36.318 16.3436 -0.200059 362.403 95.9837 359.857
lowerback -5.22644 -1.22029 -2.7724
upperback 0.923626 -1.45615 0.329035
thorax 3.96499 -0.790353 1.7701
lowerneck -6.17135 1.08423 7.78595
upperneck 11.4451 0.700461 0.41154
head 4.48513 0.750268 -1.09538
rclavicle 1.77819e-014 8.54774e-015
rhumerus -23.8025 -9.01512 -87.5611
rradius 19.8895
rwrist 10.0109
rhand -21.7851 35.0936
rfingers 7.12502
rthumb 4.61628 5.1639
lclavicle 1.77819e-014 8.54774e-015
lhumerus -31.062 34.9563 71.0784
lradius 10.2728
lwrist -29.1018
lhand -11.0411 45.6797
lfingers 7.12502
lthumb 14.9809 75.1178
rfemur -6.444 -0.24966 21.7994
rtibia 22.2237
rfoot -13.1409 -13.9918
rtoes -7.76565
lfemur -12.8337 -2.68362 -16.1792
ltibia 28.0129
lfoot -20.3751 2.59754
ltoes -9.43831
